# xmcd
#
# Track frame offsets:
#	180
#	9976
#	25567
#	36254
#	50328
#	67555
#	87569
#	100557
#	123412
#	139313
#
# Disc length: 2047 seconds
#
# Revision: 0
# Processed by: cddbd v1.5.2PL0 Copyright (c) Steve Scherf et al.
# Submitted via: audiograbber 1.83.01
#
DISCID=7207fd0a
DTITLE=Various Artist - New Country - Volume 4 - Number 7
DYEAR=1997
DGENRE=Country
TTITLE0=Tom T. Hall - Country Is
TTITLE1=George Ducas - I'm Pretending
TTITLE2=Hank Williams, Jr. - I'll Think Of Something
TTITLE3=Joe Nichols - I Hate The Way I Love You
TTITLE4=Bekka And Billy - Better Days
TTITLE5=Chris LeDoux - Take Me To The Rodeo
TTITLE6=Townes Van Zandt - Gone Too Long
TTITLE7=Nancy Middleton - This Town Is Yours
TTITLE8=5 Chinese Brothers - Let's Kill Saturday Night
TTITLE9=Slim Whitman - I Talk To The Waves
EXTD=
EXTT0=
EXTT1=
EXTT2=
EXTT3=
EXTT4=
EXTT5=
EXTT6=
EXTT7=
EXTT8=
EXTT9=
PLAYORDER=
